<svg width="168" height="110" viewBox="0 0 168 110" fill="none" xmlns="http://www.w3.org/2000/svg">
<path d="M115.441 98.1401L120.889 103.671L126.303 98.1401H128.296C127.266 99.2031 126.237 100.266 125.174 101.312C124.177 102.292 123.164 103.239 122.217 104.269C122.002 104.501 121.802 104.734 121.586 104.966V109.866H120.092V104.933L113.365 98.1401H115.441Z" fill="#CC9B12"/>
<path d="M112.06 101.911H110.648C110.632 101.479 110.615 100.981 110.499 100.549C110.283 99.7688 109.818 99.5031 108.423 99.3868C107.393 99.3204 106.38 99.2706 105.35 99.2706C104.404 99.2706 103.457 99.3038 102.51 99.337C101.912 99.3702 100.982 99.4366 100.451 99.8352C99.8861 100.284 99.8197 101.214 99.7698 101.861C99.7034 102.625 99.6536 103.389 99.6536 104.17C99.6536 104.818 99.6868 105.482 99.7034 106.13C99.7532 106.711 99.7864 107.392 100.119 107.924C100.484 108.472 101.132 108.621 102.344 108.688H108.356C108.971 108.654 109.801 108.605 110.266 108.09C110.731 107.558 110.698 106.678 110.682 106.047L112.16 106.063C112.16 106.479 112.176 106.894 112.127 107.309C111.977 108.771 111.346 109.302 110.748 109.584C109.951 109.966 109.12 109.983 108.29 110H102.577C102.377 110 102.178 109.983 101.979 109.983C101.132 109.95 100.185 109.817 99.4377 109.302C99.0889 109.053 98.9062 108.787 98.8232 108.654C98.2086 107.708 98.1754 106.512 98.1422 105.466L98.2086 101.812C98.2419 101.596 98.2585 101.38 98.2751 101.164C98.3249 100.882 98.4744 99.719 99.255 98.9882C100.002 98.274 100.932 98.1578 101.896 98.0747C103.025 98.0415 104.138 97.9917 105.267 97.9917C106.513 97.9917 107.759 98.0581 109.004 98.1412C109.203 98.1578 109.403 98.1744 109.602 98.2076C109.835 98.2408 110.565 98.3571 111.147 98.8553C112.06 99.6193 112.077 100.848 112.06 101.911Z" fill="#CC9B12"/>
<path d="M87.7872 98.1401H89.747L96.6395 109.866H94.9787L93.4009 107.192H83.9673L82.4725 109.866H80.7784L87.7872 98.1401ZM88.7671 99.0702L84.615 106.079H92.7531L88.7671 99.0702Z" fill="#CC9B12"/>
<path d="M79.1843 101.613H77.7061C77.7227 101.032 77.7227 100.284 77.2577 99.8523C76.7761 99.4039 75.846 99.3541 75.2647 99.3209C74.2184 99.271 73.172 99.2378 72.1257 99.2378C71.0129 99.2378 69.9168 99.271 68.804 99.2877C68.1563 99.3375 67.1764 99.4205 66.6947 99.952C66.2463 100.45 66.1965 101.347 66.1799 101.945V105.997C66.1965 106.662 66.2463 107.559 66.7778 108.074C67.2926 108.572 68.2061 108.605 68.8538 108.638H74.999C75.1318 108.622 75.2647 108.622 75.381 108.622C76.5934 108.555 77.1581 108.173 77.4404 107.658C77.6895 107.16 77.7726 106.413 77.8058 105.25H71.6939V104.087H79.2341C79.2507 105.997 79.2175 107.16 78.9019 108.007C78.7691 108.356 78.5033 108.97 77.6729 109.452C77.0252 109.817 76.4273 109.851 75.7131 109.9C74.6004 109.95 73.4876 110 72.3748 110C71.0628 110 69.7673 109.95 68.4386 109.9C68.1729 109.884 67.9072 109.867 67.6248 109.834C66.1467 109.651 65.5155 109.037 65.1834 108.456C64.7349 107.658 64.6685 106.761 64.6021 105.898C64.5855 105.283 64.5522 104.669 64.5522 104.038C64.5522 103.274 64.6021 102.526 64.6519 101.762C64.6685 101.546 64.7017 101.33 64.7183 101.098C64.8678 100.068 65.2332 99.188 66.1467 98.6233C66.8774 98.1915 67.5584 98.1417 68.3888 98.0752C69.4185 98.0254 70.4649 97.9756 71.4946 97.9756C72.8399 97.9756 74.1851 98.0254 75.5304 98.0752C76.7595 98.1915 78.0715 98.3742 78.7525 99.6032C79.1012 100.251 79.1511 100.915 79.1843 101.613Z" fill="#CC9B12"/>
<path d="M50.4694 98.1401H62.278V99.3027H51.8977V103.189H61.9292V104.368H51.8811V108.653H62.3278V109.866H50.4694V98.1401Z" fill="#CC9B12"/>
<path d="M37.962 98.1401H39.407V108.587H48.6579V109.866H37.962V98.1401Z" fill="#CC9B12"/>
<path fill-rule="evenodd" clip-rule="evenodd" d="M69.9928 8.30422C69.9928 5.0283 72.6484 2.37264 75.9243 2.37264H88.9738C92.2498 2.37264 94.9054 5.0283 94.9054 8.30422V53.3843H97.2781V8.30422C97.2781 3.71793 93.5601 0 88.9738 0H75.9243C71.338 0 67.6201 3.71793 67.6201 8.30422V53.3843H69.9928V8.30422ZM42.7074 23.7264C39.4315 23.7264 36.7759 26.382 36.7759 29.6579V53.3843H34.4032V29.6579C34.4032 25.0716 38.1211 21.3537 42.7074 21.3537H55.7569C60.3432 21.3537 64.0612 25.0716 64.0612 29.6579V53.3843H61.6885V29.6579C61.6885 26.382 59.0329 23.7264 55.7569 23.7264H42.7074ZM8.30422 40.3348C5.0283 40.3348 2.37264 42.9905 2.37264 46.2664V53.3843H0V46.2664C0 41.6801 3.71793 37.9622 8.30422 37.9622H21.3537C25.94 37.9622 29.6579 41.6801 29.6579 46.2664V53.3843H27.2853V46.2664C27.2853 42.9905 24.6296 40.3348 21.3537 40.3348H8.30422ZM110.328 33.2169C107.052 33.2169 104.396 35.8726 104.396 39.1485V53.3843H102.023V39.1485C102.023 34.5622 105.741 30.8443 110.328 30.8443H123.377C127.963 30.8443 131.681 34.5622 131.681 39.1485V53.3843H129.309V39.1485C129.309 35.8726 126.653 33.2169 123.377 33.2169H110.328ZM137.606 46.2664C137.606 42.9905 140.262 40.3348 143.538 40.3348H156.587C159.863 40.3348 162.519 42.9905 162.519 46.2664V53.3843H164.891V46.2664C164.891 41.6801 161.173 37.9622 156.587 37.9622H143.538C138.951 37.9622 135.233 41.6801 135.233 46.2664V53.3843H137.606V46.2664Z" fill="url(#paint0_linear_2004_6013)"/>
<path d="M11.91 61.172H23.196C25.818 61.172 28.63 61.134 30.872 62.73C31.024 62.844 31.67 63.338 32.126 63.908C32.544 64.44 32.886 65.048 33.152 65.656C33.95 67.594 34.14 69.836 34.14 74.244C34.14 76.258 34.178 78.272 33.912 80.286C33.532 83.63 32.506 85.15 31.328 86.214C29.314 88 26.35 88 23.842 88H11.91V61.172ZM15.254 64.212V85.15H23.5C24.032 85.15 24.526 85.15 25.058 85.112C26.844 85.036 28.592 84.808 29.656 83.098C30.796 81.274 30.682 78.31 30.72 76.182C30.72 75.422 30.758 74.662 30.758 73.902C30.758 72.496 30.682 71.128 30.568 69.722C30.416 67.822 30.188 65.96 28.326 64.934C27.148 64.326 25.856 64.212 23.158 64.212H15.254ZM38.6243 61.172H41.7403V64.516H38.6243V61.172ZM38.6243 68.962H41.7403V88H38.6243V68.962ZM68.1886 69.342H64.8446C64.8826 67.176 64.9206 65.77 64.0466 64.896C63.1726 64.06 61.8806 63.984 59.7906 63.87C58.7266 63.832 57.7006 63.832 56.6366 63.832C55.7626 63.832 54.8886 63.832 54.0146 63.87C52.8366 63.908 51.0506 63.984 50.1006 65.618C49.4926 66.72 49.4166 67.974 49.3406 70.254C49.3026 71.508 49.3026 72.762 49.3026 74.016C49.3026 75.612 49.3406 77.284 49.3786 78.842C49.4166 79.564 49.4166 80.21 49.4926 80.97C49.6066 82.034 49.7206 83.174 50.5946 84.048C51.8486 85.34 53.7486 85.264 55.3446 85.264C56.1806 85.302 57.0546 85.302 57.8526 85.302C58.7266 85.302 59.4106 85.302 60.1326 85.264C61.1966 85.226 63.3246 85.264 64.3126 83.934C65.0346 82.984 65.0346 81.35 65.0346 79.906V77.512H56.4846V74.624H68.1886C68.1886 76.638 68.2266 78.614 68.1506 80.628C68.1506 81.046 68.2266 83.364 67.3146 85.15C67.1626 85.416 66.8586 86.138 66.0986 86.708C64.0846 88.38 60.4366 88.342 58.4606 88.342C56.9786 88.342 55.4586 88.304 53.9386 88.19C53.4826 88.152 51.1646 88.114 49.2646 87.012C48.5426 86.594 47.5926 85.796 46.9846 84.314C45.9206 81.578 46.0346 77.398 46.0346 74.7C46.0346 72.686 45.9966 70.634 46.1106 68.582C46.1486 68.24 46.2246 65.428 47.7446 63.452C48.5426 62.388 49.5686 61.666 51.5446 61.286C52.6086 61.096 54.6986 60.906 57.4346 60.906C58.3846 60.906 59.3726 60.944 60.3606 60.982C63.4006 61.096 65.3766 61.476 66.6686 62.844C67.9606 64.212 68.1506 66.188 68.1886 69.342ZM84.3383 61.172L94.1423 88H90.6843L88.6703 82.338H75.5223L73.5083 88H70.0503L79.8163 61.172H84.3383ZM82.0583 64.06L76.4723 79.526H87.6063L82.0583 64.06ZM121.236 61.172H126.708V88H123.364L123.516 63.946L113.598 88H110.368L100.564 64.288L100.716 88H97.372V61.172H102.806L112.04 83.592L121.236 61.172ZM133.072 61.172H150.134V63.984H136.264V72.8H149.64V75.536H136.264V85.112H150.324V88H133.072V61.172Z" fill="white"/>
<defs>
<linearGradient id="paint0_linear_2004_6013" x1="82.4456" y1="0" x2="82.4456" y2="53.3843" gradientUnits="userSpaceOnUse">
<stop stop-color="#CC9B12"/>
<stop offset="0.380208" stop-color="#FFEEBE"/>
<stop offset="1" stop-color="#A27700"/>
</linearGradient>
</defs>
</svg>
